<svg xmlns="http://www.w3.org/2000/svg" version="1.1" xmlns:xlink="http://www.w3.org/1999/xlink" xmlns:svgjs="http://svgjs.dev/svgjs" width="1000" height="1000" viewBox="0 0 1000 1000"><rect width="1000" height="1000" fill="#ffffff"></rect><g transform="matrix(0.7,0,0,0.7,149.57575757575756,426.727404850776)"><svg viewBox="0 0 396 83" data-background-color="#ffffff" preserveAspectRatio="xMidYMid meet" height="209" width="1000" xmlns="http://www.w3.org/2000/svg" xmlns:xlink="http://www.w3.org/1999/xlink"><g id="tight-bounds" transform="matrix(1,0,0,1,0.2400000000000091,0.06955158841830666)"><svg viewBox="0 0 395.52 82.86089682316339" height="82.86089682316339" width="395.52"><g><svg viewBox="0 0 524.0657926358786 109.79106384544617" height="82.86089682316339" width="395.52"><g transform="matrix(1,0,0,1,0,15.17372879484821)"><svg viewBox="0 0 395.52 79.44360625574976" height="79.44360625574976" width="395.52"><g id="textblocktransform"><svg viewBox="0 0 395.52 79.44360625574976" height="79.44360625574976" width="395.52" id="textblock"><g><svg viewBox="0 0 395.52 79.44360625574976" height="79.44360625574976" width="395.52"><g transform="matrix(1,0,0,1,0,0)"><svg width="395.52" viewBox="-10.800000190734863 -32 163.04000854492188 32.75" height="79.44360625574976" data-palette-color="#222222"><path d="M37.1-18.2L34.15-1.5Q28.05 0.75 21.9 0.75 15.75 0.75 13.03-1.7 10.3-4.15 10.3-9.25L10.3-9.25Q10.3-11.4 11-15.6L11-15.6Q12.5-24.3 16.3-28.15 20.1-32 28.9-32L28.9-32Q30.8-32 33.65-31.6 36.5-31.2 37.85-30.7L37.85-30.7 35.1-23.05Q31.35-23.75 28.23-23.75 25.1-23.75 23.75-23.25 22.4-22.75 22.15-21.25L22.15-21.25 19.7-7.1 22.85-7.1Q24.55-7.1 25.38-7.48 26.2-7.85 26.45-9.2L26.45-9.2 26.7-10.55 24.3-10.55 25.65-18.2 37.1-18.2ZM9.75-16.85L9.6-15.85Q9.5-15.45 9.4-14.75L9.4-14.75-10.25-16.85 9.75-16.85ZM-10.8-12.05L9.05-12.05Q8.9-10.9 8.9-9.95L8.9-9.95-10.8-12.05ZM-9.05-21.65L10.95-21.65 10.35-19.6-9.05-21.65ZM-10.15-7.25L8.95-7.25Q9.15-5.85 9.3-5.15L9.3-5.15-10.15-7.25ZM-6.7-26.45L13-26.45Q12.3-25.15 12-24.45L12-24.45-6.7-26.45ZM-5.35-2.4L10.45-2.4Q11.1-1.25 11.95-0.55L11.95-0.55-5.35-2.4ZM0.2-31.25L17.75-31.25Q16.3-30.35 15.5-29.6L15.5-29.6 0.2-31.25ZM58.15-7.8L62.1-7.8Q64.05-7.8 65-8.28 65.95-8.75 66.25-10.45L66.25-10.45 68.55-23.45 64.55-23.45Q62.65-23.45 61.7-22.98 60.75-22.5 60.45-20.8L60.45-20.8 58.15-7.8ZM66.2-32L66.2-32Q72.55-32 75.25-29.53 77.95-27.05 77.95-21.9 77.95-16.75 76.32-11.13 74.7-5.5 71.17-2.38 67.65 0.75 60.87 0.75 54.1 0.75 51.4-1.73 48.7-4.2 48.7-9.35L48.7-9.35Q48.7-11.8 49.4-15.83 50.1-19.85 51.25-22.78 52.4-25.7 54.35-27.85L54.35-27.85Q58.1-32 66.2-32ZM48.1-16.85L47.95-15.85Q47.85-15.45 47.75-14.75L47.75-14.75 28.1-16.85 48.1-16.85ZM27.55-12.05L47.4-12.05Q47.25-10.9 47.25-9.95L47.25-9.95 27.55-12.05ZM29.3-21.65L49.3-21.65 48.7-19.6 29.3-21.65ZM28.2-7.25L47.3-7.25Q47.5-5.85 47.65-5.15L47.65-5.15 28.2-7.25ZM31.65-26.45L51.35-26.45Q50.65-25.15 50.35-24.45L50.35-24.45 31.65-26.45ZM33-2.4L48.8-2.4Q49.45-1.25 50.3-0.55L50.3-0.55 33-2.4ZM38.55-31.25L56.1-31.25Q54.65-30.35 53.85-29.6L53.85-29.6 38.55-31.25ZM100.64-4.95L98.69 0 88.69 0 101.84-31.25 116.55-31.25 118.75 0 108.69 0 108.5-4.95 100.64-4.95ZM103.75-12.9L107.75-12.9 107.75-21.65 107.25-21.65 103.75-12.9ZM88.05-2.4L87.09-0.2 66.59-2.4 88.05-2.4ZM90.09-7.25L89.14-5.05 68.64-7.25 90.09-7.25ZM92.09-12.05L91.19-9.85 70.69-12.05 92.09-12.05ZM94.14-16.85L93.19-14.65 72.75-16.85 94.14-16.85ZM96.14-21.65L95.25-19.45 74.8-21.65 96.14-21.65ZM100.19-31.25L99.3-29.1 78.89-31.25 100.19-31.25ZM98.14-26.45L97.25-24.3 76.84-26.45 98.14-26.45ZM78.89-31.25L99.3-29.1 100.19-31.25 78.89-31.25ZM152.24-8L150.84 0 131.84 0 137.34-31.25 146.84-31.25 142.74-8 152.24-8ZM130.74-2.4L130.34-0.15 109.14-2.4 130.74-2.4ZM132.44-12.05L132.04-9.8 110.84-12.05 132.44-12.05ZM133.29-16.85L132.89-14.6 111.69-16.85 133.29-16.85ZM134.14-21.65L133.74-19.4 112.54-21.65 134.14-21.65ZM134.94-26.45L134.59-24.2 113.39-26.45 134.94-26.45ZM131.59-7.25L131.19-5 109.99-7.25 131.59-7.25ZM135.79-31.25L135.39-29 114.24-31.25 135.79-31.25Z" opacity="1" transform="matrix(1,0,0,1,0,0)" fill="#222222" class="wordmark-text-0" data-fill-palette-color="primary" id="text-0"></path></svg></g></svg></g></svg></g></svg></g><g transform="matrix(1,0,0,1,414.2747287904324,0)"><svg viewBox="0 0 109.79106384544617 109.79106384544617" height="109.79106384544617" width="109.79106384544617"><g data-palette-color="#f500a2"><rect width="30.00955745108862" height="109.79106384544617" fill="#f500a2" stroke="transparent" data-fill-palette-color="accent" x="0" fill-opacity="1"></rect><rect width="30.00955745108862" height="109.79106384544617" fill="#f500a2" stroke="transparent" data-fill-palette-color="accent" x="36.597021281815394" fill-opacity="0.75"></rect><rect width="30.00955745108862" height="109.79106384544617" fill="#f500a2" stroke="transparent" data-fill-palette-color="accent" x="73.19404256363079" fill-opacity="0.5"></rect></g></svg></g></svg></g><defs></defs></svg><rect width="395.52" height="82.86089682316339" fill="none" stroke="none" visibility="hidden"></rect></g></svg></g></svg>